<svg id="visual" viewBox="0 0 900 600" width="900" height="600" xmlns="http://www.w3.org/2000/svg" xmlns:xlink="http://www.w3.org/1999/xlink" version="1.1"><path d="M0 396L12.5 397.7C25 399.3 50 402.7 75 397C100 391.3 125 376.7 150 374.3C175 372 200 382 225 381.7C250 381.3 275 370.7 300 366.8C325 363 350 366 375 366.2C400 366.3 425 363.7 450 367C475 370.3 500 379.7 525 381.3C550 383 575 377 600 382.5C625 388 650 405 675 406C700 407 725 392 750 381.5C775 371 800 365 825 362.3C850 359.7 875 360.3 887.5 360.7L900 361L900 601L887.5 601C875 601 850 601 825 601C800 601 775 601 750 601C725 601 700 601 675 601C650 601 625 601 600 601C575 601 550 601 525 601C500 601 475 601 450 601C425 601 400 601 375 601C350 601 325 601 300 601C275 601 250 601 225 601C200 601 175 601 150 601C125 601 100 601 75 601C50 601 25 601 12.5 601L0 601Z" fill="#ff0066"></path><path d="M0 413L12.5 414.2C25 415.3 50 417.7 75 415.5C100 413.3 125 406.7 150 410C175 413.3 200 426.7 225 434C250 441.3 275 442.7 300 445.2C325 447.7 350 451.3 375 443.8C400 436.3 425 417.7 450 417.2C475 416.7 500 434.3 525 436.7C550 439 575 426 600 417.3C625 408.7 650 404.3 675 406.2C700 408 725 416 750 424C775 432 800 440 825 435.7C850 431.3 875 414.7 887.5 406.3L900 398L900 601L887.5 601C875 601 850 601 825 601C800 601 775 601 750 601C725 601 700 601 675 601C650 601 625 601 600 601C575 601 550 601 525 601C500 601 475 601 450 601C425 601 400 601 375 601C350 601 325 601 300 601C275 601 250 601 225 601C200 601 175 601 150 601C125 601 100 601 75 601C50 601 25 601 12.5 601L0 601Z" fill="#fd5864"></path><path d="M0 468L12.5 468.3C25 468.7 50 469.3 75 472.2C100 475 125 480 150 476.2C175 472.3 200 459.7 225 460C250 460.3 275 473.7 300 479C325 484.3 350 481.7 375 482.2C400 482.7 425 486.3 450 483.7C475 481 500 472 525 467.3C550 462.7 575 462.3 600 460.2C625 458 650 454 675 453.3C700 452.7 725 455.3 750 461.7C775 468 800 478 825 477.3C850 476.7 875 465.3 887.5 459.7L900 454L900 601L887.5 601C875 601 850 601 825 601C800 601 775 601 750 601C725 601 700 601 675 601C650 601 625 601 600 601C575 601 550 601 525 601C500 601 475 601 450 601C425 601 400 601 375 601C350 601 325 601 300 601C275 601 250 601 225 601C200 601 175 601 150 601C125 601 100 601 75 601C50 601 25 601 12.5 601L0 601Z" fill="#fa7268"></path><path d="M0 500L12.5 502.5C25 505 50 510 75 512.2C100 514.3 125 513.7 150 515.7C175 517.7 200 522.3 225 523.7C250 525 275 523 300 518.7C325 514.3 350 507.7 375 502.8C400 498 425 495 450 493.2C475 491.3 500 490.7 525 490.7C550 490.7 575 491.3 600 492.7C625 494 650 496 675 502C700 508 725 518 750 515.8C775 513.7 800 499.3 825 496.8C850 494.3 875 503.7 887.5 508.3L900 513L900 601L887.5 601C875 601 850 601 825 601C800 601 775 601 750 601C725 601 700 601 675 601C650 601 625 601 600 601C575 601 550 601 525 601C500 601 475 601 450 601C425 601 400 601 375 601C350 601 325 601 300 601C275 601 250 601 225 601C200 601 175 601 150 601C125 601 100 601 75 601C50 601 25 601 12.5 601L0 601Z" fill="#fd5864"></path><path d="M0 539L12.5 539.7C25 540.3 50 541.7 75 541.5C100 541.3 125 539.7 150 540C175 540.3 200 542.7 225 541.5C250 540.3 275 535.7 300 539C325 542.3 350 553.7 375 559C400 564.3 425 563.7 450 563.5C475 563.3 500 563.7 525 562.2C550 560.7 575 557.3 600 557C625 556.7 650 559.3 675 561.3C700 563.3 725 564.7 750 563.2C775 561.7 800 557.3 825 556C850 554.7 875 556.3 887.5 557.2L900 558L900 601L887.5 601C875 601 850 601 825 601C800 601 775 601 750 601C725 601 700 601 675 601C650 601 625 601 600 601C575 601 550 601 525 601C500 601 475 601 450 601C425 601 400 601 375 601C350 601 325 601 300 601C275 601 250 601 225 601C200 601 175 601 150 601C125 601 100 601 75 601C50 601 25 601 12.5 601L0 601Z" fill="#ff0066"></path></svg>